<?xml version="1.0" encoding="utf-8"?>
<!-- Generator: Adobe Illustrator 24.0.1, SVG Export Plug-In . SVG Version: 6.00 Build 0)  -->
<svg version="1.1" id="Capa_1" xmlns="http://www.w3.org/2000/svg" xmlns:xlink="http://www.w3.org/1999/xlink" x="0px" y="0px"
	 viewBox="0 0 128 128" style="enable-background:new 0 0 128 128;" xml:space="preserve">
<style type="text/css">
	.st0{fill:#FFFFFF;}
</style>
<path class="st0" d="M64.1,48.4c-0.8,0-1.5-0.4-2-1.1c-0.5-0.8-0.5-1.5,0-2.3l14.1-24.5c0.5-0.8,1.2-1.3,2-1.6
	c0.8-0.2,1.6-0.2,2.4,0.1c5.9,2.1,11.3,5.5,16.1,10c4.8,4.5,8.5,9.8,11.2,15.7c0.4,1,0.4,1.9,0,2.6c-0.5,0.7-1.3,1.1-2.4,1.1H64.1
	L64.1,48.4z M46.6,56.8l-14.2-25c-0.5-0.8-0.6-1.7-0.4-2.5c0.2-0.9,0.6-1.6,1.3-2.1c4.3-3.6,9-6.3,14.3-8.3S58.3,16,64,16
	c0.9,0,1.8,0,2.9,0.1c1.1,0.1,2,0.2,3,0.3c1,0.1,1.8,0.5,2.2,1.3c0.4,0.8,0.3,1.6-0.2,2.6L50.5,56.8c-0.5,0.8-1.1,1.1-2,1.1
	S47,57.5,46.6,56.8z M20.2,75.3c-0.8,0-1.5-0.3-2.2-0.8c-0.7-0.6-1.1-1.2-1.3-2c-0.3-1.5-0.5-3-0.6-4.3C16.1,66.7,16,65.4,16,64
	c0-5,0.8-9.9,2.4-14.7c1.6-4.8,3.9-9.4,7-13.7c0.7-0.9,1.5-1.4,2.4-1.4s1.7,0.5,2.2,1.6l20.6,36.1c0.5,0.8,0.5,1.5,0,2.3
	c-0.5,0.8-1.1,1.1-2,1.1H20.2L20.2,75.3z M47.9,109.1c-6.2-2.2-11.8-5.7-16.8-10.3c-5-4.7-8.7-10-11.2-15.9c-0.4-1-0.4-1.9,0.1-2.6
	c0.5-0.7,1.3-1.1,2.4-1.1h42.1c0.8,0,1.5,0.4,1.9,1.1c0.4,0.8,0.4,1.5-0.1,2.3l-14.1,25c-0.5,0.8-1.2,1.3-1.9,1.6
	C49.6,109.5,48.8,109.4,47.9,109.1L47.9,109.1z M64,112c-0.8,0-1.7,0-2.7-0.1c-0.9-0.1-1.8-0.2-2.6-0.3c-1-0.2-1.8-0.6-2.2-1.4
	c-0.4-0.8-0.3-1.6,0.2-2.5l21.1-35.8c0.5-0.7,1.2-1.1,2.1-1.1c0.9,0,1.6,0.4,2.1,1.1L95.7,96c0.5,0.8,0.6,1.6,0.4,2.5
	c-0.2,0.9-0.6,1.6-1.3,2.2c-4.2,3.6-9,6.3-14.3,8.3C75.2,111,69.7,112,64,112z M98.1,92.3L77.5,55.9c-0.5-0.8-0.5-1.5,0-2.3
	c0.4-0.8,1.1-1.1,1.9-1.1h28.4c0.8,0,1.5,0.3,2.2,0.8c0.7,0.6,1.1,1.2,1.3,2c0.2,1.5,0.4,2.9,0.6,4.3c0.1,1.4,0.2,2.9,0.2,4.3
	c0,5.2-0.8,10.1-2.3,14.9c-1.5,4.7-3.9,9.2-7,13.6c-0.6,0.8-1.4,1.3-2.3,1.3C99.4,93.7,98.6,93.3,98.1,92.3L98.1,92.3z"/>
</svg>
